<svg xmlns="http://www.w3.org/2000/svg" width="1000" height="1158" viewBox="0 0 1000 1158"><rect width="1000" height="1158" fill="#12301c"/><circle cx="343.7" cy="519.2" r="145.2" fill="none" stroke="#ffd34d" stroke-width="2" stroke-opacity="0.6" stroke-dasharray="6 6"/><polyline points="343.7 519.2 418.1 513 492.6 506.9" fill="none" stroke="#7ee08a" stroke-width="9" stroke-opacity="0.5" stroke-linecap="round" stroke-linejoin="round"/><rect x="340.7" y="516.2" width="6" height="6" fill="#ffffff"/><circle cx="492.6" cy="506.9" r="4" fill="#d94a3d"/><text x="351.7" y="513.2" fill="#ffffff" font-family="sans-serif" font-size="13" font-weight="600">1</text><polyline points="445 561.7 490.9 557.7 536.8 553.7" fill="none" stroke="#7ee08a" stroke-width="9" stroke-opacity="0.5" stroke-linecap="round" stroke-linejoin="round"/><rect x="442" y="558.7" width="6" height="6" fill="#ffffff"/><circle cx="536.8" cy="553.7" r="4" fill="#d94a3d"/><text x="453" y="555.7" fill="#ffffff" font-family="sans-serif" font-size="13" font-weight="600">2</text><polyline points="609 497.9 498.7 549.3 439.6 655.7" fill="none" stroke="#7ee08a" stroke-width="9" stroke-opacity="0.5" stroke-linecap="round" stroke-linejoin="round"/><rect x="606" y="494.9" width="6" height="6" fill="#ffffff"/><circle cx="439.6" cy="655.7" r="4" fill="#d94a3d"/><text x="617" y="491.9" fill="#ffffff" font-family="sans-serif" font-size="13" font-weight="600">3</text><polyline points="426.5 607.9 457.9 685.3 392.9 839.2 424.4 916.5" fill="none" stroke="#7ee08a" stroke-width="9" stroke-opacity="0.5" stroke-linecap="round" stroke-linejoin="round"/><rect x="423.5" y="604.9" width="6" height="6" fill="#ffffff"/><circle cx="424.4" cy="916.5" r="4" fill="#d94a3d"/><text x="434.5" y="601.9" fill="#ffffff" font-family="sans-serif" font-size="13" font-weight="600">4</text><polyline points="423.9 947.3 377.2 999.8 330.5 1052.2" fill="none" stroke="#7ee08a" stroke-width="9" stroke-opacity="0.5" stroke-linecap="round" stroke-linejoin="round"/><rect x="420.9" y="944.3" width="6" height="6" fill="#ffffff"/><circle cx="330.5" cy="1052.2" r="4" fill="#d94a3d"/><text x="431.9" y="941.3" fill="#ffffff" font-family="sans-serif" font-size="13" font-weight="600">5</text><polyline points="309.9 1075.4 309.9 1015.2 309.9 955" fill="none" stroke="#7ee08a" stroke-width="9" stroke-opacity="0.5" stroke-linecap="round" stroke-linejoin="round"/><rect x="306.9" y="1072.4" width="6" height="6" fill="#ffffff"/><circle cx="309.9" cy="955" r="4" fill="#d94a3d"/><text x="317.9" y="1069.4" fill="#ffffff" font-family="sans-serif" font-size="13" font-weight="600">6</text><polyline points="309.9 923.9 228 888.5 236.4 799.8" fill="none" stroke="#7ee08a" stroke-width="9" stroke-opacity="0.5" stroke-linecap="round" stroke-linejoin="round"/><rect x="306.9" y="920.9" width="6" height="6" fill="#ffffff"/><circle cx="236.4" cy="799.8" r="4" fill="#d94a3d"/><text x="317.9" y="917.9" fill="#ffffff" font-family="sans-serif" font-size="13" font-weight="600">7</text><polyline points="216.8 738.8 193.5 648.4 170.2 558" fill="none" stroke="#7ee08a" stroke-width="9" stroke-opacity="0.5" stroke-linecap="round" stroke-linejoin="round"/><rect x="213.8" y="735.8" width="6" height="6" fill="#ffffff"/><circle cx="170.2" cy="558" r="4" fill="#d94a3d"/><text x="224.8" y="732.8" fill="#ffffff" font-family="sans-serif" font-size="13" font-weight="600">8</text><polyline points="82.9 502.1 225.8 514.4 368.7 526.8" fill="none" stroke="#7ee08a" stroke-width="9" stroke-opacity="0.5" stroke-linecap="round" stroke-linejoin="round"/><rect x="79.9" y="499.1" width="6" height="6" fill="#ffffff"/><circle cx="368.7" cy="526.8" r="4" fill="#d94a3d"/><text x="90.9" y="496.1" fill="#ffffff" font-family="sans-serif" font-size="13" font-weight="600">9</text><polyline points="437 519.2 539.4 450.6 563.3 329.7" fill="none" stroke="#7ab8f0" stroke-width="9" stroke-opacity="0.5" stroke-linecap="round" stroke-linejoin="round"/><rect x="434" y="516.2" width="6" height="6" fill="#ffffff"/><circle cx="563.3" cy="329.7" r="4" fill="#d94a3d"/><text x="445" y="513.2" fill="#ffffff" font-family="sans-serif" font-size="13" font-weight="600">10</text><polyline points="630.8 375.5 704.5 237.7 778.2 99.9" fill="none" stroke="#7ab8f0" stroke-width="9" stroke-opacity="0.5" stroke-linecap="round" stroke-linejoin="round"/><rect x="627.8" y="372.5" width="6" height="6" fill="#ffffff"/><circle cx="778.2" cy="99.9" r="4" fill="#d94a3d"/><text x="638.8" y="369.5" fill="#ffffff" font-family="sans-serif" font-size="13" font-weight="600">11</text><polyline points="821.2 82.9 776.8 175.9 732.4 268.9" fill="none" stroke="#7ab8f0" stroke-width="9" stroke-opacity="0.5" stroke-linecap="round" stroke-linejoin="round"/><rect x="818.2" y="79.9" width="6" height="6" fill="#ffffff"/><circle cx="732.4" cy="268.9" r="4" fill="#d94a3d"/><text x="829.2" y="76.9" fill="#ffffff" font-family="sans-serif" font-size="13" font-weight="600">12</text><polyline points="749 371.2 784 410.4 819 449.6" fill="none" stroke="#7ab8f0" stroke-width="9" stroke-opacity="0.5" stroke-linecap="round" stroke-linejoin="round"/><rect x="746" y="368.2" width="6" height="6" fill="#ffffff"/><circle cx="819" cy="449.6" r="4" fill="#d94a3d"/><text x="757" y="365.2" fill="#ffffff" font-family="sans-serif" font-size="13" font-weight="600">13</text><polyline points="917.1 483.4 804.5 537.4 694.6 478" fill="none" stroke="#7ab8f0" stroke-width="9" stroke-opacity="0.5" stroke-linecap="round" stroke-linejoin="round"/><rect x="914.1" y="480.4" width="6" height="6" fill="#ffffff"/><circle cx="694.6" cy="478" r="4" fill="#d94a3d"/><text x="925.1" y="477.4" fill="#ffffff" font-family="sans-serif" font-size="13" font-weight="600">14</text><polyline points="718.2 578.2 671.7 517.5 625.2 456.9" fill="none" stroke="#7ab8f0" stroke-width="9" stroke-opacity="0.5" stroke-linecap="round" stroke-linejoin="round"/><rect x="715.2" y="575.2" width="6" height="6" fill="#ffffff"/><circle cx="625.2" cy="456.9" r="4" fill="#d94a3d"/><text x="726.2" y="572.2" fill="#ffffff" font-family="sans-serif" font-size="13" font-weight="600">15</text><polyline points="529.6 492.5 490.2 497.2 450.7 502" fill="none" stroke="#7ab8f0" stroke-width="9" stroke-opacity="0.5" stroke-linecap="round" stroke-linejoin="round"/><rect x="526.6" y="489.5" width="6" height="6" fill="#ffffff"/><circle cx="450.7" cy="502" r="4" fill="#d94a3d"/><text x="537.6" y="486.5" fill="#ffffff" font-family="sans-serif" font-size="13" font-weight="600">16</text><polyline points="350.6 518.1 281.9 476.7 213.9 519.2" fill="none" stroke="#7ab8f0" stroke-width="9" stroke-opacity="0.5" stroke-linecap="round" stroke-linejoin="round"/><rect x="347.6" y="515.1" width="6" height="6" fill="#ffffff"/><circle cx="213.9" cy="519.2" r="4" fill="#d94a3d"/><text x="358.6" y="512.1" fill="#ffffff" font-family="sans-serif" font-size="13" font-weight="600">17</text><polyline points="110.3 521.2 182.7 503.1 328.3 536.6 400.7 518.4" fill="none" stroke="#7ab8f0" stroke-width="9" stroke-opacity="0.5" stroke-linecap="round" stroke-linejoin="round"/><rect x="107.3" y="518.2" width="6" height="6" fill="#ffffff"/><circle cx="400.7" cy="518.4" r="4" fill="#d94a3d"/><text x="118.3" y="515.2" fill="#ffffff" font-family="sans-serif" font-size="13" font-weight="600">18</text><circle cx="343.7" cy="519.2" r="7" fill="#ffd34d"/></svg>